<?xml version="1.0" encoding="utf-8"?>
<!-- Generator: Adobe Illustrator 27.2.0, SVG Export Plug-In . SVG Version: 6.00 Build 0)  -->
<svg version="1.1" id="Layer_1" xmlns="http://www.w3.org/2000/svg" xmlns:xlink="http://www.w3.org/1999/xlink" x="0px" y="0px"
	 viewBox="0 0 1000 500" style="enable-background:new 0 0 1000 500;" xml:space="preserve">
<style type="text/css">
	.st0{fill:#009F69;}
	.st1{fill:#4EBA74;}
	.st2{fill:#067E65;}
</style>
<g>
	<path class="st0" d="M69.8,357.3c-4.2,0-8.2-0.7-12-1.9c-3.7-1.2-7-3-9.8-5.4s-5-5.2-6.6-8.6c-1.6-3.4-2.4-7.3-2.4-11.7V275h-9.3
		c-1.6,0-2.7-0.4-3.5-1c-0.8-0.7-1.2-1.9-1.2-3.5V259c0-1.6,0.4-2.6,1.2-3.3c0.8-0.6,2-1,3.5-1H39c0-2.9,0-5.7,0-8.5
		c0-2.8,0-5.7,0-8.5c0-1.1,0.3-1.9,1-2.5s1.7-1.2,3.1-1.7c0.9-0.3,2-0.7,3.3-1.2c1.3-0.5,2.6-0.9,4-1.3c1.4-0.4,2.7-0.8,4-1.1
		c1.3-0.3,2.4-0.4,3.2-0.4c1.7,0,2.8,0.5,3.3,1.4c0.5,0.9,0.8,2.1,0.8,3.6c0,3.4,0,6.8,0,10.1c0,3.4,0,6.8,0,10.1h11.6
		c1.4,0,2.5,0.4,3.2,1.1c0.8,0.7,1.1,1.9,1.1,3.4v11c0,1.7-0.4,3-1.1,3.7c-0.8,0.8-1.8,1.1-3.2,1.1H61.7v15.3c0,1.9,0,3.6,0,5.2
		c0,1.6,0,3.4,0,5.3v15.4c0,0.1,0,0.2,0,0.3c0,0.1,0,0.2,0,0.3v10.6c0,3.6,0.7,6.1,2.1,7.7c1.4,1.6,3.7,2.4,6.8,2.4
		c1.1,0,2,0.4,2.7,1.2c0.7,0.8,1,1.8,1,2.9v11.2c0,1.4-0.4,2.5-1.2,3.3S71.2,357.3,69.8,357.3"/>
	<path class="st0" d="M177,356.2c-0.6,0.1-1.2,0.2-1.9,0.2s-1.3,0-1.9,0H165c-1.6,0-3.1-0.6-3.9-1.6c-0.8-1-0.9-2-1.1-3.3l-0.9-7.4
		c-1.2,1.8-2.7,3.5-4.4,5.1c-1.8,1.6-3.9,3.1-6.3,4.4c-2.4,1.3-5.2,2.3-8.4,3c-3.1,0.8-6.7,1.1-10.7,1.1c-6.4,0-12.1-1.1-17-3.4
		c-4.9-2.3-9-5.4-12.3-9.4s-5.8-8.6-7.6-14c-1.7-5.4-2.6-11.2-2.6-17.4v-53.9c0-1.9,0.5-3.4,1.4-4.4c0.9-1,2.2-1.5,4-1.5h12.3
		c2.2,0,3.6,0.4,4.3,1.2c0.7,0.8,1.1,2.2,1.1,4.3v53.9c0,2.9,0.4,5.6,1.3,8.4c0.9,2.7,2.2,5.2,4,7.3c1.8,2.2,4,3.9,6.7,5.2
		c2.7,1.3,5.8,1.9,9.3,1.9c2.5,0,5.1-0.4,7.8-1.3c2.7-0.9,5.1-2.2,7.4-4c2.2-1.8,4-4,5.5-6.7c1.4-2.7,2.2-5.8,2.2-9.3v-52.4
		c0-1,0.1-2,0.2-3s0.3-1.9,0.7-2.8c0.4-0.8,0.8-1.5,1.5-2c0.6-0.5,1.5-0.8,2.5-0.8h13.3c1.8,0,3.1,0.4,3.9,1.3s1.2,2.1,1.2,3.6v92.9
		C180.4,353.5,179,355.9,177,356.2"/>
	<path class="st0" d="M257.2,259.3c0-1.7-1.1-3.3-2.7-3.8c-2.2-0.8-5.1-1.5-6.5-1.7c-2.2-0.4-4.6-0.5-7.3-0.5c-3,0-5.7,0.4-8.1,1.1
		s-4.5,1.7-6.4,3c-1.9,1.2-3.6,2.6-5.1,4.2s-2.8,3.2-4,4.9c-0.2-1.1-0.4-2.4-0.6-3.8c-0.2-1.4-0.4-2.6-0.8-3.8
		c-0.4-1.2-0.9-2.2-1.6-3c-0.7-0.8-1.7-1.2-3.1-1.2h-10.3c-1.2,0-2.4,0.4-3.4,1.2s-1.6,2-1.6,3.6v93c0,3.2,1.7,4.9,5,4.9h13.3
		c3.4,0,5-1.6,5-4.9v-54.1c0.4-5,0.4-8.3,2.2-11.8c1.1-2.1,5.1-10.9,16.4-12.1c4.1-0.4,8.5-0.1,13.2,1.9c2.2,0.7,5.8,1.7,6.2-2.7
		L257.2,259.3L257.2,259.3L257.2,259.3z"/>
	<path class="st0" d="M309.9,357.3c-4.3,0-8.2-0.7-12-1.9c-3.7-1.2-7-3-9.8-5.4c-2.8-2.4-5-5.2-6.6-8.6c-1.6-3.4-2.4-7.3-2.4-11.7
		V275h-9.3c-1.6,0-2.7-0.4-3.5-1c-0.8-0.7-1.2-1.9-1.2-3.5V259c0-1.6,0.4-2.6,1.2-3.3c0.8-0.6,2-1,3.5-1h9.3c0-2.9,0-5.7,0-8.5
		c0-2.8,0-5.7,0-8.5c0-1.1,0.3-1.9,1-2.5s1.7-1.2,3.1-1.7c0.9-0.3,2-0.7,3.3-1.2c1.3-0.5,2.6-0.9,4-1.3c1.4-0.4,2.7-0.8,4-1.1
		c1.3-0.3,2.4-0.4,3.2-0.4c1.7,0,2.8,0.5,3.3,1.4c0.5,0.9,0.8,2.1,0.8,3.6c0,3.4,0,6.8,0,10.1s0,6.8,0,10.1h11.6
		c1.4,0,2.5,0.4,3.2,1.1c0.8,0.7,1.1,1.9,1.1,3.4v11c0,1.7-0.4,3-1.1,3.7s-1.8,1.1-3.2,1.1h-11.6v15.3c0,1.9,0,3.6,0,5.2
		c0,1.6,0,3.4,0,5.3v15.4c0,0.1,0,0.2,0,0.3c0,0.1,0,0.2,0,0.3v10.6c0,3.6,0.7,6.1,2.1,7.7c1.4,1.6,3.7,2.4,6.8,2.4
		c1.1,0,2,0.4,2.7,1.2c0.6,0.8,1,1.8,1,2.9v11.2c0,1.4-0.4,2.5-1.2,3.3C312.4,356.9,311.3,357.3,309.9,357.3"/>
	<path class="st0" d="M331,229.1c0-1.4,0.4-2.6,1.1-3.5s1.9-1.4,3.5-1.4h14.1c1.1,0,2.1,0.5,3,1.4c0.9,0.9,1.4,2.1,1.4,3.5v123.4
		c0,1.6-0.4,2.8-1.3,3.6c-0.9,0.8-2.1,1.2-3.6,1.2h-13.5c-1.7,0-3-0.4-3.7-1.2c-0.7-0.8-1.1-2-1.1-3.6L331,229.1L331,229.1z"/>
	<path class="st0" d="M453.3,346c-4.7,4-9.9,7.2-15.5,9.5c-5.6,2.3-11.8,3.5-18.5,3.5c-7.3,0-14.2-1.4-20.7-4.1s-12.2-6.5-17.1-11.3
		c-4.9-4.8-8.8-10.4-11.7-16.8s-4.3-13.4-4.3-20.8c0-4.8,0.6-9.4,1.8-13.9c1.2-4.5,2.9-8.7,5-12.6c2.2-3.9,4.8-7.5,8-10.8
		c3.1-3.3,6.6-6,10.5-8.4c3.9-2.3,8-4.1,12.5-5.4c4.5-1.3,9.2-1.9,14.3-1.9c4.1,0,8.1,0.5,12.1,1.5c4,1,7.8,2.4,11.4,4.2
		c3.6,1.8,6.9,4,10.1,6.7c3.1,2.6,5.9,5.6,8.2,8.8c3.2,4.5,5.6,9.4,7.1,14.6c1.5,5.2,2.3,11,2.3,17.4c0,1.6-0.1,2.9-0.2,3.9
		c-0.1,1-0.5,1.9-1,2.5c-0.5,0.6-1.3,1.1-2.4,1.4c-1.1,0.3-2.6,0.4-4.5,0.4h-71.7c0.7,3.9,2,7.3,4,10.3s4.3,5.5,7,7.6
		s5.6,3.6,8.8,4.7c3.2,1,6.4,1.6,9.5,1.6c2.4,0,4.8-0.2,7-0.7c2.2-0.5,4.3-1.1,6.3-1.9s3.7-1.7,5.4-2.8c1.6-1,3.1-2.1,4.3-3.3
		c0,0,0-0.1,0.1-0.1c0.6-0.6,1.3-1.1,1.9-1.4s1.2-0.5,1.9-0.5c0.5,0,1,0.2,1.6,0.5c0.6,0.3,1.2,0.9,1.8,1.6c1.5,1.8,2.7,3.3,3.7,4.4
		c1,1.2,1.9,2.2,2.5,3c0.6,0.8,1.1,1.5,1.4,2.1c0.3,0.6,0.4,1.2,0.4,1.8C456.4,343,455.4,344.5,453.3,346 M417.4,273.1
		c-3.2,0-6.3,0.6-9.3,1.7s-5.8,2.7-8.3,4.7c-2.5,2-4.7,4.3-6.5,7c-1.9,2.7-3.2,5.6-4.1,8.7h57.2c-0.9-3.3-2.2-6.3-3.9-9
		s-3.9-5.1-6.4-7s-5.3-3.5-8.5-4.6C424.5,273.6,421.1,273.1,417.4,273.1"/>
	<path class="st0" d="M483.5,255.7c1.4-0.7,3.1-1,5.1-1h8.2c1.6,0,2.7,0.5,3.5,1.5c0.8,1,1.3,2.2,1.5,3.4l0.9,7.8
		c1.2-1.8,2.7-3.6,4.3-5.3s3.5-3.2,5.8-4.5c2.2-1.3,4.8-2.3,7.8-3.1c3-0.8,6.5-1.2,10.5-1.2c3.8,0,7.2,0.4,10.3,1.1
		c3.1,0.7,5.8,1.8,8.3,3.2c2.5,1.4,4.7,3.2,6.7,5.3s3.8,4.5,5.4,7.2c1.3-2.5,3-4.9,5.2-7c2.2-2.1,4.8-3.9,7.6-5.4
		c2.9-1.5,6-2.6,9.5-3.4s7-1.2,10.8-1.2c6.4,0,11.9,1.2,16.8,3.5c4.8,2.3,8.8,5.5,12.1,9.5s5.7,8.8,7.3,14.1s2.5,11.1,2.5,17.3v53.9
		c0,1.9-0.5,3.4-1.4,4.4c-0.9,1-2.2,1.5-4,1.5h-12.3c-2.2,0-3.6-0.4-4.3-1.2c-0.7-0.8-1.1-2.2-1.1-4.3v-54.2c0-2.9-0.4-5.6-1.2-8.3
		c-0.8-2.7-2.1-5.1-3.8-7.1c-1.7-2.1-3.8-3.7-6.4-5c-2.6-1.3-5.6-1.9-9.2-1.9c-3,0-5.7,0.5-8.2,1.6c-2.5,1-4.7,2.6-6.5,4.5
		c-1.8,2-3.3,4.3-4.3,7.1c-1,2.8-1.6,5.9-1.6,9.2v53.8c0,3.9-1.8,5.8-5.2,5.8h-12.4c-2.2,0-3.6-0.4-4.3-1.2s-1-2.2-1-4.3v-54.1
		c0-2.8-0.4-5.5-1.2-8.2c-0.8-2.7-2-5-3.6-7.1c-1.7-2.1-3.8-3.8-6.3-5.1c-2.6-1.3-5.7-1.9-9.2-1.9c-2.5,0-5,0.5-7.4,1.4
		c-2.5,0.9-4.7,2.3-6.8,4.1c-2,1.8-3.7,4-5,6.5c-1.3,2.6-2,5.5-2,8.8v56.4c0,1.4-0.5,2.5-1.4,3.4c-0.9,0.9-2.1,1.3-3.5,1.3h-13.3
		c-1.8,0-3.1-0.4-3.9-1.2c-0.8-0.8-1.2-2-1.2-3.6v-93C481.4,257.6,482.1,256.4,483.5,255.7"/>
	<path class="st0" d="M648.1,259.6c0-1.4,0.4-2.6,1.2-3.5c0.8-0.9,2-1.4,3.5-1.4h13.4c0.6,0,1.2,0.1,1.8,0.4s1.2,0.6,1.7,1.1
		c0.5,0.5,0.9,1,1.2,1.6c0.3,0.6,0.5,1.2,0.5,1.9v92.8c0,3.2-1.7,4.9-5.1,4.9h-13.4c-3.2,0-4.8-1.6-4.8-4.9L648.1,259.6L648.1,259.6
		z"/>
	<path class="st0" d="M689,257c0.7-0.9,1.3-1.4,1.9-1.6c0.4-0.4,1.1-0.7,1.9-0.7s1.7,0,2.4,0h8.2c1.6,0,2.7,0.5,3.5,1.5
		c0.8,1,1.3,2.2,1.5,3.4l0.9,8.6c1.2-1.8,2.8-3.6,4.6-5.4c1.8-1.8,3.9-3.4,6.4-4.8c2.5-1.4,5.3-2.5,8.5-3.4
		c3.2-0.9,6.8-1.3,10.8-1.3c6.4,0,12,1.1,17,3.4c5,2.3,9.1,5.4,12.5,9.4c3.4,4,6,8.7,7.7,14.1c1.8,5.4,2.6,11.2,2.6,17.4v53.9
		c0,1.9-0.5,3.4-1.4,4.4c-0.9,1-2.2,1.5-4,1.5h-12.3c-2.2,0-3.6-0.4-4.3-1.2c-0.7-0.8-1.1-2.2-1.1-4.3V298c0-2.9-0.5-5.6-1.5-8.4
		c-1-2.7-2.4-5.2-4.2-7.3c-1.9-2.2-4.2-3.9-6.9-5.2s-5.9-1.9-9.5-1.9c-2.5,0-5,0.5-7.7,1.5c-2.7,1-5.1,2.4-7.3,4.2s-4,4-5.5,6.7
		c-1.5,2.6-2.2,5.6-2.3,8.9v52.4c0,1,0,2-0.2,3.1c-0.1,1-0.3,1.9-0.7,2.8s-0.8,1.5-1.5,1.9c-0.7,0.5-1.5,0.7-2.5,0.7h-13.3
		c-1.8,0-3.1-0.4-3.9-1.2c-0.8-0.8-1.2-2-1.2-3.6v-93C688.1,258.7,688.4,257.9,689,257"/>
	<path class="st0" d="M828.8,357.3c-4.3,0-8.2-0.7-12-1.9s-7-3-9.8-5.4s-5-5.2-6.6-8.6c-1.6-3.4-2.4-7.3-2.4-11.7V275h-9.3
		c-1.6,0-2.7-0.4-3.5-1c-0.8-0.7-1.2-1.9-1.2-3.5V259c0-1.6,0.4-2.6,1.2-3.3c0.8-0.6,2-1,3.5-1h9.3c0-2.9,0-5.7,0-8.5
		c0-2.8,0-5.7,0-8.5c0-1.1,0.3-1.9,1-2.5s1.7-1.2,3.1-1.7c0.9-0.3,2-0.7,3.3-1.2c1.3-0.5,2.6-0.9,4-1.3c1.4-0.4,2.7-0.8,4-1.1
		c1.3-0.3,2.4-0.4,3.2-0.4c1.7,0,2.8,0.5,3.3,1.4c0.5,0.9,0.8,2.1,0.8,3.6c0,3.4,0,6.8,0,10.1c0,3.4,0,6.8,0,10.1h11.6
		c1.4,0,2.5,0.4,3.2,1.1c0.8,0.7,1.1,1.9,1.1,3.4v11c0,1.7-0.4,3-1.1,3.7s-1.8,1.1-3.2,1.1h-11.6v15.3c0,1.9,0,3.6,0,5.2
		c0,1.6,0,3.4,0,5.3v15.4c0,0.1,0,0.2,0,0.3c0,0.1,0,0.2,0,0.3v10.6c0,3.6,0.7,6.1,2.1,7.7c1.4,1.6,3.7,2.4,6.8,2.4
		c1.1,0,2,0.4,2.7,1.2c0.7,0.8,1,1.8,1,2.9v11.2c0,1.4-0.4,2.5-1.2,3.3C831.3,356.9,830.2,357.3,828.8,357.3"/>
	<path class="st0" d="M659.8,214.8c-18.4,0-18.5,28.6,0,28.6S678.2,214.8,659.8,214.8"/>
	<path class="st1" d="M893.4,188v63c22.5,0,40.8-18.2,41-40.7V188H893.4z"/>
	<path class="st0" d="M975,147.4c-22.4,0-40.5,18.1-40.5,40.5H975V147.4"/>
	<path class="st2" d="M934.5,141v47h-93.9c0-25.9,21-46.9,46.9-46.9v0H934.5z"/>
</g>
</svg>
